# xmcd
#
# Track frame offsets:
#  150
#  22183
#  46897
#  65626
#  88452
#  101161
#  125213
#  141312
#  159032
#  178851
#  195999
#  231636
#
# Disc length: 3435 seconds
#
# Revision: 0
# Processed by: cddbd v1.5.1PL0 Copyright (c) Steve Scherf et al.
# Submitted via: Collectorz.com Music Collector 6.9
#
DISCID=b50d690c
DTITLE=The Mannish Boys - "Live and In Demand"
DYEAR=2005
DGENRE=Blues -  Blues Chicago
TTITLE0=Kid's Jump
TTITLE1=I'm Ready (Tribute To Lester Butler)
TTITLE2=She Wants To Sell My Monkey
TTITLE3=Mannish Boy
TTITLE4=You're Sweet
TTITLE5=Howling Wolf
TTITLE6=Goin' Crazy Over T.V.
TTITLE7=Mystery Train
TTITLE8=It's Too Bad
TTITLE9=Strangest Blues
TTITLE10=As The Years Go Passing By
TTITLE11=Walkin' And Walkin'
EXTD=
EXTT0=
EXTT1=
EXTT2=
EXTT3=
EXTT4=
EXTT5=
EXTT6=
EXTT7=
EXTT8=
EXTT9=
EXTT10=
EXTT11=
PLAYORDER=
